<svg xmlns="http://www.w3.org/2000/svg" width="1580.393" height="1098.156" viewBox="0 0 1580.393 1098.156">
  <g id="Group_47" data-name="Group 47" transform="translate(0 -461)">
    <path id="Path_28" data-name="Path 28" d="M1580.393,958.018c-54.235,37.287-134.842,71.9-226.679,24.683C1168,887.205,1148.563,566.155,984.782,489.039,830.31,416.3,797.274,678.207,607.755,606.284,493.889,563.07,474.812,456.766,348.693,377.965c-140.377-87.708-264.353-48.234-348.114,0L0-32.552H1579.815Z" transform="translate(0 553.552)" fill="#e85b25"/>
    <path id="Rectangle_54" data-name="Rectangle 54" d="M15,0H1580a0,0,0,0,1,0,0V72a0,0,0,0,1,0,0H0a0,0,0,0,1,0,0V15A15,15,0,0,1,15,0Z" transform="translate(0 461)" fill="#e85b25"/>
  </g>
</svg>
